<?xml version="1.0" ?><svg xmlns="http://www.w3.org/2000/svg" xmlns:xlink="http://www.w3.org/1999/xlink" version="1.1" viewBox="0 0 510 510" style="enable-background:new 0 0 510 510;" xml:space="preserve"><g id="_x34_8_x2C__balcony_x2C__window_x2C__rail_x2C__balconies_x2C__veranda_x2C__railling"><g><g><g id="XMLID_888_"><path id="XMLID_914_" style="fill:#5596FB;" d="M350,260v-88.434c12.577,4.321,25.762,7.039,39.278,8.017      c5.545,0.398,10.299-3.777,10.695-9.252c0.399-5.508-3.743-10.297-9.252-10.695C320.224,154.533,265,95.102,265,24.333V10      c0-5.523-4.478-10-10-10c-5.523,0-10,4.477-10,10v14.333c0,70.769-55.224,130.2-125.722,135.303      c-5.509,0.398-9.651,5.188-9.252,10.695c0.396,5.48,5.155,9.65,10.695,9.252c13.517-0.978,26.701-3.696,39.278-8.017V260      c0,5.522,4.477,10,10,10s10-4.478,10-10v-96.921c34.102-17.39,61.206-47.203,75-83.764c13.784,36.536,40.875,66.362,75,83.764      V260c0,5.522,4.478,10,10,10S350,265.522,350,260z"/><g id="XMLID_907_"><path id="XMLID_911_" style="fill:#283954;" d="M500,450h-35v-20h10c5.522,0,10-4.478,10-10s-4.478-10-10-10h-10v-30       c0-5.522-4.478-10-10-10s-10,4.478-10,10v30h-10c-5.522,0-10,4.478-10,10s4.478,10,10,10h10v20h-60v-20h10       c5.522,0,10-4.478,10-10s-4.478-10-10-10h-10v-30c0-5.522-4.478-10-10-10s-10,4.478-10,10v30h-10c-5.522,0-10,4.478-10,10       s4.478,10,10,10h10v20h-60v-20h10c5.522,0,10-4.478,10-10s-4.478-10-10-10h-10v-30c0-5.522-4.478-10-10-10s-10,4.478-10,10v30       h-10c-5.522,0-10,4.478-10,10s4.478,10,10,10h10v20h-60v-20h10c5.523,0,10-4.478,10-10s-4.477-10-10-10h-10v-30       c0-5.522-4.477-10-10-10s-10,4.478-10,10v30h-10c-5.523,0-10,4.478-10,10s4.477,10,10,10h10v20h-60v-20h10       c5.523,0,10-4.478,10-10s-4.477-10-10-10h-10v-30c0-5.522-4.477-10-10-10s-10,4.478-10,10v30h-10c-5.522,0-10,4.478-10,10       s4.478,10,10,10h10v20H65v-20h10c5.522,0,10-4.478,10-10s-4.478-10-10-10H65v-30c0-5.522-4.478-10-10-10s-10,4.478-10,10v30H35       c-5.522,0-10,4.478-10,10s4.478,10,10,10h10v20H10c-5.523,0-10,4.478-10,10v40c0,5.522,4.477,10,10,10h490       c5.522,0,10-4.478,10-10v-40C510,454.478,505.522,450,500,450z M490,490H20v-20h470V490z"/><path id="XMLID_908_" style="fill:#283954;" d="M10,270h35v20H35c-5.522,0-10,4.478-10,10s4.478,10,10,10h10v30       c0,5.522,4.478,10,10,10s10-4.478,10-10v-30h10c5.522,0,10-4.478,10-10s-4.478-10-10-10H65v-20c18.095,0,32.431,0,60,0v20h-10       c-5.522,0-10,4.478-10,10s4.478,10,10,10h10v30c0,5.522,4.477,10,10,10s10-4.478,10-10v-30h10c5.523,0,10-4.478,10-10       s-4.477-10-10-10h-10v-20h60v20h-10c-5.523,0-10,4.478-10,10s4.477,10,10,10h10v30c0,5.522,4.477,10,10,10s10-4.478,10-10v-30       h10c5.523,0,10-4.478,10-10s-4.477-10-10-10h-10v-20h60v20h-10c-5.522,0-10,4.478-10,10s4.478,10,10,10h10v30       c0,5.522,4.478,10,10,10s10-4.478,10-10v-30h10c5.522,0,10-4.478,10-10s-4.478-10-10-10h-10v-20h60v20h-10       c-5.522,0-10,4.478-10,10s4.478,10,10,10h10v30c0,5.522,4.478,10,10,10s10-4.478,10-10v-30h10c5.522,0,10-4.478,10-10       s-4.478-10-10-10h-10v-20c18.834,0,33.013,0,60,0v20h-10c-5.522,0-10,4.478-10,10s4.478,10,10,10h10v30c0,5.522,4.478,10,10,10       s10-4.478,10-10v-30h10c5.522,0,10-4.478,10-10s-4.478-10-10-10h-10v-20h35c5.522,0,10-4.478,10-10c0-5.523-4.478-10-10-10H400       V145C400,65.047,334.953,0,255,0S110,65.047,110,145v105H10c-5.523,0-10,4.477-10,10C0,265.522,4.477,270,10,270z M130,145       c0-68.925,56.075-125,125-125s125,56.075,125,125v105H130V145z"/></g><path id="XMLID_904_" style="fill:#5596FB;" d="M55,330c-16.542,0-30,13.458-30,30s13.458,30,30,30s30-13.458,30-30      S71.542,330,55,330z M55,370c-5.514,0-10-4.486-10-10s4.486-10,10-10s10,4.486,10,10S60.514,370,55,370z"/><path id="XMLID_901_" style="fill:#5596FB;" d="M135,330c-16.542,0-30,13.458-30,30s13.458,30,30,30s30-13.458,30-30      S151.542,330,135,330z M135,370c-5.514,0-10-4.486-10-10s4.486-10,10-10s10,4.486,10,10S140.514,370,135,370z"/><path id="XMLID_898_" style="fill:#5596FB;" d="M215,330c-16.542,0-30,13.458-30,30s13.458,30,30,30s30-13.458,30-30      S231.542,330,215,330z M215,370c-5.514,0-10-4.486-10-10s4.486-10,10-10s10,4.486,10,10S220.514,370,215,370z"/><path id="XMLID_895_" style="fill:#5596FB;" d="M295,330c-16.542,0-30,13.458-30,30s13.458,30,30,30s30-13.458,30-30      S311.542,330,295,330z M295,370c-5.514,0-10-4.486-10-10s4.486-10,10-10s10,4.486,10,10S300.514,370,295,370z"/><path id="XMLID_892_" style="fill:#5596FB;" d="M375,330c-16.542,0-30,13.458-30,30s13.458,30,30,30s30-13.458,30-30      S391.542,330,375,330z M375,370c-5.514,0-10-4.486-10-10s4.486-10,10-10s10,4.486,10,10S380.514,370,375,370z"/><path id="XMLID_889_" style="fill:#5596FB;" d="M455,330c-16.542,0-30,13.458-30,30s13.458,30,30,30s30-13.458,30-30      S471.542,330,455,330z M455,370c-5.514,0-10-4.486-10-10s4.486-10,10-10s10,4.486,10,10S460.514,370,455,370z"/></g></g></g></g><g id="Layer_1"/></svg>