<svg xmlns="http://www.w3.org/2000/svg" viewBox="0 0 512 512" id="brick-wall"><path d="M483.241,273.844A21.9,21.9,0,0,0,463.2,270.89c-1.358.462-2.736.972-4.094,1.514a25.829,25.829,0,0,1-19.812-.523,64.17,64.17,0,0,0-27.038-5.049,60.981,60.981,0,0,0-25.154,5.222,26.006,26.006,0,0,1-19.685.888,101.624,101.624,0,0,0-9.744-2.983,5.778,5.778,0,0,0-2.828,11.2,89.984,89.984,0,0,1,8.63,2.642,37.525,37.525,0,0,0,28.388-1.222,49.57,49.57,0,0,1,20.562-4.2c.132,0,.264,0,.4-.013a52.087,52.087,0,0,1,21.83,4.087,37.448,37.448,0,0,0,28.739.676c1.176-.47,2.368-.911,3.543-1.311A10.628,10.628,0,0,1,480.971,291.9v10.713a22.387,22.387,0,0,0-11-2.881H338.7V202.37a20.677,20.677,0,0,0-8.15-16.516,20.384,20.384,0,0,0-17.8-3.57,61.069,61.069,0,0,0-8.294,2.874,22.835,22.835,0,0,1-17.291.4,74.634,74.634,0,0,0-9.364-3A5.778,5.778,0,1,0,275,193.775a62.658,62.658,0,0,1,7.907,2.532,34.476,34.476,0,0,0,26.105-.532,49.36,49.36,0,0,1,6.717-2.328,8.907,8.907,0,0,1,7.779,1.575,9.2,9.2,0,0,1,3.631,7.348v9.623a22.394,22.394,0,0,0-11-2.881H261.778V141.043a22.578,22.578,0,0,0-22.551-22.552H25.251a5.779,5.779,0,0,0-5.779,5.778v362.48a5.78,5.78,0,0,0,5.779,5.779h461.5a5.78,5.78,0,0,0,5.779-5.779V291.9A21.959,21.959,0,0,0,483.241,273.844Zm-2.27,48.439v68.068h-65.36V311.288h54.365A11.007,11.007,0,0,1,480.971,322.283Zm-153.832-90.62v68.068H284.7a5.779,5.779,0,0,0,0,11.557h119.36v79.063H261.778V305.509A5.778,5.778,0,0,0,256,299.731H184.862V220.668H316.143A11.008,11.008,0,0,1,327.139,231.663ZM179.084,390.351H107.946V311.288H250.222v79.063ZM31.029,220.668H173.306v79.063H31.029Zm219.193-79.625v68.069H107.946V130.048H239.227A11.008,11.008,0,0,1,250.222,141.043Zm-219.193-11h65.36v79.064H31.029Zm0,271.859h43.2a5.778,5.778,0,1,0,0-11.556h-43.2V311.288h65.36v84.841a5.779,5.779,0,0,0,5.779,5.778H327.139v79.064H184.862V425.325a5.778,5.778,0,0,0-11.556,0v55.646H31.029Zm449.942,79.064H338.7V401.907H480.971Z"></path><path d="M221.649 152.423a5.486 5.486 0 0 0 .534 1 6.374 6.374 0 0 0 .722.881 5.414 5.414 0 0 0 .882.722 5.943 5.943 0 0 0 1 .534 6.772 6.772 0 0 0 1.083.333 5.887 5.887 0 0 0 5.215-1.589 5.37 5.37 0 0 0 .708-.881 4.788 4.788 0 0 0 .534-1 5.709 5.709 0 0 0 .332-1.068 5.946 5.946 0 0 0 .116-1.142 5.785 5.785 0 0 0-6.905-5.662 5.524 5.524 0 0 0-1.083.332 5.081 5.081 0 0 0-1 .535 4.694 4.694 0 0 0-.882.722 5.816 5.816 0 0 0-1.69 4.073 5.009 5.009 0 0 0 .116 1.142A5.662 5.662 0 0 0 221.649 152.423zM223.787 178.815a5.963 5.963 0 0 0 1 .521 5.592 5.592 0 0 0 1.083.332 5.764 5.764 0 0 0 6.457-7.873 5.6 5.6 0 0 0-.534-1 5.98 5.98 0 0 0-.708-.881 5.833 5.833 0 0 0-5.215-1.575 5.592 5.592 0 0 0-1.083.332 5.081 5.081 0 0 0-1 .535 5.285 5.285 0 0 0-.882.708 7.25 7.25 0 0 0-.722.881 6.59 6.59 0 0 0-.534 1 5.829 5.829 0 0 0-.318 1.083 4.96 4.96 0 0 0-.116 1.127 5.876 5.876 0 0 0 1.69 4.088A6.254 6.254 0 0 0 223.787 178.815zM53.764 250.161a5.77 5.77 0 0 0-5.778 5.764 6 6 0 0 0 .1 1.141 7.068 7.068 0 0 0 .332 1.069 6.173 6.173 0 0 0 .535 1.012 5.892 5.892 0 0 0 .722.866 5.771 5.771 0 0 0 8.161 0 5.09 5.09 0 0 0 .723-.866 5.2 5.2 0 0 0 .534-1.012 5.626 5.626 0 0 0 .333-1.069 6.007 6.007 0 0 0 .115-1.141 5.8 5.8 0 0 0-5.778-5.764zM53.764 273.938a5.77 5.77 0 0 0-5.778 5.778 5.761 5.761 0 0 0 1.69 4.089 5.776 5.776 0 1 0 4.088-9.867zM230.33 347.61a5.873 5.873 0 0 0-4.088 1.69 7.185 7.185 0 0 0-.722.882 6.545 6.545 0 0 0-.52 1 5.554 5.554 0 0 0-.332 1.084 5.9 5.9 0 0 0-.116 1.126 5.784 5.784 0 0 0 .116 1.127A5.575 5.575 0 0 0 225 355.6a5.988 5.988 0 0 0 .52 1 6.257 6.257 0 0 0 .722.881 5.782 5.782 0 1 0 4.088-9.866zM230.33 323.833a5.809 5.809 0 0 0-4.088 1.69 7.033 7.033 0 0 0-.722.867A6.137 6.137 0 0 0 225 327.4a5.719 5.719 0 0 0-.332 1.069 5.935 5.935 0 0 0-.116 1.141 5.8 5.8 0 0 0 5.778 5.778 5.9 5.9 0 0 0 1.127-.116 5.392 5.392 0 0 0 1.083-.332 6.6 6.6 0 0 0 1-.534 6.071 6.071 0 0 0 .881-.723 6.133 6.133 0 0 0 .722-.881 5.452 5.452 0 0 0 .52-1 5.742 5.742 0 0 0 .332-1.069 5.906 5.906 0 0 0 .116-1.127 5.77 5.77 0 0 0-5.779-5.778zM455.333 331.807a5.165 5.165 0 0 0 .534 1.011 5.092 5.092 0 0 0 .722.866 5.855 5.855 0 0 0 .867.723 6.119 6.119 0 0 0 1.011.534 6.915 6.915 0 0 0 1.069.332 5.928 5.928 0 0 0 1.141.1 5.773 5.773 0 0 0 5.764-5.764 6.009 6.009 0 0 0-.1-1.141 5.649 5.649 0 0 0-.333-1.069 6.119 6.119 0 0 0-.534-1.011 5.794 5.794 0 0 0-.723-.867 5.008 5.008 0 0 0-.866-.722 5.112 5.112 0 0 0-1.011-.534 5.649 5.649 0 0 0-1.069-.333 6.008 6.008 0 0 0-2.268 0 5.671 5.671 0 0 0-1.069.333 5.112 5.112 0 0 0-1.011.534 6.208 6.208 0 0 0-1.589 1.589 5.165 5.165 0 0 0-.534 1.011A5.649 5.649 0 0 0 455 328.47a5.648 5.648 0 0 0 0 2.268A5.671 5.671 0 0 0 455.333 331.807zM368.472 456.081a4.755 4.755 0 0 0-.534-1 5.287 5.287 0 0 0-.708-.881 5.791 5.791 0 0 0-8.177 0 6.257 6.257 0 0 0-.722.881 5.461 5.461 0 0 0-.52 1 5.719 5.719 0 0 0-.332 1.069 5.6 5.6 0 0 0 0 2.267 6.235 6.235 0 0 0 .332 1.084 6.6 6.6 0 0 0 .52 1 6.062 6.062 0 0 0 .722.866 5.755 5.755 0 0 0 8.177 0 5.134 5.134 0 0 0 .708-.866 5.6 5.6 0 0 0 .534-1 6.235 6.235 0 0 0 .332-1.084 5.6 5.6 0 0 0 0-2.267A5.719 5.719 0 0 0 368.472 456.081zM205.744 323.934a5.639 5.639 0 0 0-1.068.333 5.425 5.425 0 0 0-1 .534 5.346 5.346 0 0 0-.881.722 5.91 5.91 0 0 0-.722.867 6.2 6.2 0 0 0-.535 1.011 5.743 5.743 0 0 0-.317 1.069 5.6 5.6 0 0 0 0 2.268 5.765 5.765 0 0 0 .317 1.069 6.2 6.2 0 0 0 .535 1.011 5.9 5.9 0 0 0 .722.866 5.807 5.807 0 0 0 1.879 1.257 5.565 5.565 0 0 0 1.068.332 6.061 6.061 0 0 0 1.142.116 5.762 5.762 0 0 0 4.073-1.7 5.092 5.092 0 0 0 .722-.866 5.223 5.223 0 0 0 .535-1.011 5.742 5.742 0 0 0 .332-1.069 5.935 5.935 0 0 0 .116-1.141 5.767 5.767 0 0 0-1.7-4.074A5.841 5.841 0 0 0 205.744 323.934zM54.761 434.3a5.223 5.223 0 0 0-.535-1.011 5.137 5.137 0 0 0-.722-.867 5.843 5.843 0 0 0-5.215-1.589 5.639 5.639 0 0 0-1.068.333 5.453 5.453 0 0 0-1 .534 5.4 5.4 0 0 0-.881.722 5.771 5.771 0 0 0 0 8.161 5.352 5.352 0 0 0 .881.723 5.453 5.453 0 0 0 1 .534 5.639 5.639 0 0 0 1.068.333 6.141 6.141 0 0 0 1.141.115 5.977 5.977 0 0 0 1.127-.115 6.145 6.145 0 0 0 1.083-.333 6.6 6.6 0 0 0 1-.534 5.2 5.2 0 0 0 .866-.723 5.053 5.053 0 0 0 .722-.866 5.223 5.223 0 0 0 .535-1.011 5.719 5.719 0 0 0 .332-1.069 5.6 5.6 0 0 0 0-2.268A5.742 5.742 0 0 0 54.761 434.3zM54.761 458.074a5.5 5.5 0 0 0-.535-1 5.649 5.649 0 0 0-1.588-1.589 5.554 5.554 0 0 0-1-.535 6.14 6.14 0 0 0-1.083-.332 5.967 5.967 0 0 0-2.268 0 5.636 5.636 0 0 0-1.068.332 4.72 4.72 0 0 0-1 .535 5.313 5.313 0 0 0-.881.707 6.03 6.03 0 0 0-.722.882 6.627 6.627 0 0 0-.535 1 7.322 7.322 0 0 0-.332 1.084 5.954 5.954 0 0 0-.1 1.126 5.856 5.856 0 0 0 .1 1.127 6.813 6.813 0 0 0 .332 1.084 6.051 6.051 0 0 0 .535 1 5.364 5.364 0 0 0 .722.881 6.239 6.239 0 0 0 .881.723 5.453 5.453 0 0 0 1 .534 5.589 5.589 0 0 0 1.068.318 5.145 5.145 0 0 0 1.141.115 5.808 5.808 0 0 0 4.074-1.69 4.7 4.7 0 0 0 .722-.881 5.1 5.1 0 0 0 .535-1 5.554 5.554 0 0 0 .332-1.084 5.784 5.784 0 0 0 .116-1.127 5.832 5.832 0 0 0-.448-2.21zM71.749 454.622a5.457 5.457 0 0 0-1.083.332 5.52 5.52 0 0 0-1 .535 5.96 5.96 0 0 0-.881.707 5.789 5.789 0 0 0 0 8.176 7.149 7.149 0 0 0 .881.723 6.385 6.385 0 0 0 1 .519 5.459 5.459 0 0 0 1.083.333 5.975 5.975 0 0 0 1.126.115 5.776 5.776 0 1 0-1.126-11.44zM462.9 67.369a5.77 5.77 0 1 0 4.088 1.69A5.87 5.87 0 0 0 462.9 67.369zM462.9 43.592a5.77 5.77 0 1 0 4.088 1.69A5.805 5.805 0 0 0 462.9 43.592zM444.787 47.16a5.116 5.116 0 0 0-.535-1.011 5.006 5.006 0 0 0-.722-.867 5.738 5.738 0 0 0-8.161 0 5.855 5.855 0 0 0-.723.867 6.119 6.119 0 0 0-.534 1.011 5.649 5.649 0 0 0-.318 1.069 5.648 5.648 0 0 0 0 2.268 6.159 6.159 0 0 0 .318 1.083 6.59 6.59 0 0 0 .534 1 5.907 5.907 0 0 0 .723.867 5.761 5.761 0 0 0 4.088 1.69 5.874 5.874 0 0 0 1.126-.1 6.15 6.15 0 0 0 1.084-.332 5.54 5.54 0 0 0 1-.534 6.225 6.225 0 0 0 1.588-1.589 5.422 5.422 0 0 0 .535-1 6.14 6.14 0 0 0 .332-1.083 5.6 5.6 0 0 0 0-2.268A5.623 5.623 0 0 0 444.787 47.16z"></path><path d="M469.976,19.472H349.69a22.577,22.577,0,0,0-22.551,22.552V99.1a22.576,22.576,0,0,0,22.551,22.551H469.976A22.577,22.577,0,0,0,492.528,99.1V42.024A22.578,22.578,0,0,0,469.976,19.472Zm11,79.625a11.007,11.007,0,0,1-11,11H349.69a11.008,11.008,0,0,1-11-11V42.024a11.008,11.008,0,0,1,11-10.995H469.976a11.007,11.007,0,0,1,11,11Z"></path></svg>