<svg xmlns="http://www.w3.org/2000/svg" viewBox="0 0 64 64" id="pressure-washer"><path d="M25,41a3,3,0,1,0-3-3A3,3,0,0,0,25,41Zm0-4a1,1,0,1,1-1,1A1,1,0,0,1,25,37Z"></path><rect width="10" height="2" x="20" y="43"></rect><rect width="10" height="2" x="20" y="47"></rect><rect width="10" height="2" x="20" y="51"></rect><path d="M42 40a1 1 0 001-1V35a1 1 0 00-1-1H39V31a.9.9 0 00-.01-.137L35.537 5.826A5.612 5.612 0 0030 1H20a5.612 5.612 0 00-5.537 4.826L11.01 30.863A.9.9 0 0011 31v3H8a1 1 0 00-1 1V46a1 1 0 001 1h3V59a4 4 0 004 4H35a4 4 0 004-4V48h3a1 1 0 001-1V43a1 1 0 00-1-1H39V40zM9 45V36h2v9zM29 5H21V3h8zM20.883 7h8.234l2.75 22H18.133zM18.868 61l2.667-4h6.93l2.667 4zM37 59a2 2 0 01-2 2H33.535l-3.7-5.555A1 1 0 0029 55H21a1 1 0 00-.832.445L16.465 61H15a2 2 0 01-2-2V31.069L16.443 6.1A3.6 3.6 0 0119 3.158v2.78L16.008 29.876A1 1 0 0017 31H33a1 1 0 00.992-1.124L31 5.938V3.158A3.6 3.6 0 0133.557 6.1L37 31.069zm4-23v2H39V36zm0 8v2H39V44zM51 63h4a1 1 0 001-1V25a1 1 0 001-1V6a1 1 0 00-1-1H51.414L47.707 1.293a1 1 0 00-1.414 0L42.354 5.232a4.621 4.621 0 000 6.536L49 18.414V24a1 1 0 001 1V62A1 1 0 0051 63zm1-2V52h2v9zM48.146 14.732L44.914 11.5 47 9.414l1.9 1.905zm1.677 1.677l1.154-5.192a1 1 0 00-.27-.924l-3-3a1 1 0 00-1.414 0L43.526 10.06a2.6 2.6 0 01.242-3.414L47 3.414l3.293 3.293A1 1 0 0051 7h4V23H51V18a1 1 0 00-.293-.707zM54 25V50H52V25z"></path></svg>