<svg xmlns="http://www.w3.org/2000/svg" viewBox="0 0 64 64" id="window"><path fill="#231f20" d="M14 51h17.5c.1.1.3.1.5.1s.3-.1.5-.1H50c.6 0 1-.4 1-1V14c0-.6-.4-1-1-1H14c-.6 0-1 .4-1 1v36c0 .6.4 1 1 1zm19-36h16v34H33V15zm-18 0h16v34H15V15z"></path><path fill="#231f20" d="m37.1 34 10-10c.4-.4.4-1 0-1.4s-1-.4-1.4 0l-10 10c-.4.4-.4 1 0 1.4.2.2.5.3.7.3s.5-.1.7-.3zm9.2-4-10 10c-.4.4-.4 1 0 1.4.2.2.5.3.7.3s.5-.1.7-.3l10-10c.4-.4.4-1 0-1.4s-1-.4-1.4 0zm-28.2 4 10-10c.4-.4.4-1 0-1.4s-1-.4-1.4 0l-10 10c-.4.4-.4 1 0 1.4.2.2.5.3.7.3s.5-.1.7-.3zm9.2-4-10 10c-.4.4-.4 1 0 1.4.2.2.5.3.7.3s.5-.1.7-.3l10-10c.4-.4.4-1 0-1.4s-1-.4-1.4 0z"></path><path fill="#231f20" d="M56 53h-1V11h1c1.7 0 3-1.3 3-3s-1.3-3-3-3H8C6.3 5 5 6.3 5 8s1.3 3 3 3h1v42H8c-1.7 0-3 1.3-3 3s1.3 3 3 3h48c1.7 0 3-1.3 3-3s-1.3-3-3-3zM8 9c-.6 0-1-.4-1-1s.4-1 1-1h48c.6 0 1 .4 1 1s-.4 1-1 1H8zm45 2v42H11V11h42zm3 46H8c-.6 0-1-.4-1-1s.4-1 1-1h48c.6 0 1 .4 1 1s-.4 1-1 1z"></path></svg>